<?xml version="1.0" standalone="no"?>
<!DOCTYPE svg PUBLIC "-//W3C//DTD SVG 20010904//EN"
 "http://www.w3.org/TR/2001/REC-SVG-20010904/DTD/svg10.dtd">
<svg version="1.0" xmlns="http://www.w3.org/2000/svg"
 width="1067.000000pt" height="1067.000000pt" viewBox="0 0 1067.000000 1067.000000"
 preserveAspectRatio="xMidYMid meet">
<metadata>
Created by potrace 1.11, written by Peter Selinger 2001-2013
</metadata>
<g transform="translate(0.000000,1067.000000) scale(0.100000,-0.100000)"
fill="#000000" stroke="none">
<path d="M3245 9496 c-173 -46 -293 -116 -417 -244 -116 -119 -186 -243 -223
-393 -8 -35 -107 -635 -220 -1334 -113 -698 -207 -1280 -210 -1292 l-5 -22
-978 -3 -977 -3 -47 -22 c-66 -30 -133 -102 -154 -165 -13 -41 -16 -74 -11
-182 14 -341 155 -656 407 -906 209 -209 462 -343 750 -397 90 -17 294 -18
4170 -18 3942 0 4078 1 4175 19 448 84 816 359 1017 761 121 241 181 585 128
727 -24 65 -85 128 -155 160 l-50 23 -975 3 -975 2 -208 1293 c-115 710 -219
1331 -232 1380 -88 313 -342 551 -668 622 -60 13 -109 16 -210 13 -116 -5
-154 -11 -307 -51 -988 -258 -2048 -261 -3030 -10 -203 52 -223 56 -360 59
-129 4 -155 1 -235 -20z m427 -586 c200 -52 509 -113 728 -144 338 -49 515
-60 935 -60 292 0 436 4 575 17 364 34 731 97 1074 184 145 37 191 44 245 41
77 -4 141 -32 195 -84 74 -72 75 -75 191 -787 59 -362 105 -661 102 -663 -2
-2 -1077 -3 -2388 -2 l-2384 3 107 659 c66 407 113 675 125 700 28 62 82 116
148 148 86 41 154 38 347 -12z m6363 -3317 c-100 -239 -308 -418 -565 -486
l-85 -22 -4050 0 -4050 0 -85 22 c-175 46 -330 143 -441 276 -48 57 -139 214
-139 240 0 4 2122 7 4715 7 l4715 0 -15 -37z"/>
<path d="M2159 3665 c-148 -29 -269 -96 -384 -210 -93 -93 -154 -197 -185
-321 -18 -69 -20 -112 -20 -414 0 -378 8 -453 65 -627 69 -208 158 -348 324
-513 173 -172 339 -272 576 -349 230 -75 238 -76 810 -76 490 0 514 1 610 22
413 92 727 295 929 603 117 177 191 398 211 633 l7 77 233 0 232 0 6 -88 c16
-225 93 -447 222 -642 69 -104 249 -282 359 -354 161 -106 345 -181 556 -228
102 -22 119 -23 615 -23 496 0 513 1 615 23 532 117 913 442 1064 906 56 172
61 220 61 631 0 370 -1 382 -23 455 -40 128 -88 206 -182 300 -94 94 -172 142
-300 182 l-75 23 -1155 0 c-1299 0 -1205 5 -1368 -77 -103 -51 -216 -154 -283
-256 -42 -63 -84 -169 -103 -254 l-6 -28 -240 0 c-231 0 -240 1 -240 19 0 39
-50 177 -87 240 -78 131 -215 251 -350 306 -139 56 -116 55 -1320 54 -876 -1
-1122 -4 -1174 -14z"/>
</g>
</svg>
