<?xml version="1.0" standalone="no"?>
<!DOCTYPE svg PUBLIC "-//W3C//DTD SVG 20010904//EN"
 "http://www.w3.org/TR/2001/REC-SVG-20010904/DTD/svg10.dtd">
<svg version="1.0" xmlns="http://www.w3.org/2000/svg"
 width="286.000000pt" height="286.000000pt" viewBox="0 0 286.000000 286.000000"
 preserveAspectRatio="xMidYMid meet">
<metadata>
Created by potrace 1.11, written by Peter Selinger 2001-2013
</metadata>
<g transform="translate(0.000000,286.000000) scale(0.100000,-0.100000)"
fill="#000000" stroke="none">
<path d="M1255 2704 c-123 -18 -236 -75 -325 -164 -96 -96 -156 -222 -175
-367 l-7 -52 -56 -11 c-85 -16 -192 -49 -219 -67 -64 -42 10 -92 194 -128 215
-43 430 -59 763 -59 333 0 548 16 763 59 183 36 258 86 194 128 -30 19 -132
51 -218 67 l-67 12 -7 56 c-30 241 -187 438 -404 509 -45 14 -366 27 -436 17z"/>
<path d="M745 1709 c24 -173 67 -279 158 -387 207 -247 560 -316 852 -164 97
50 228 181 278 279 42 81 77 204 77 271 l0 45 -72 -7 c-40 -4 -90 -10 -110
-13 l-38 -6 0 -75 c0 -61 -4 -83 -24 -116 -32 -56 -95 -90 -161 -90 -112 2
-185 84 -185 209 l0 55 -95 0 -95 0 0 -68 c0 -57 -4 -75 -27 -109 -36 -56 -94
-87 -158 -87 -115 2 -185 84 -185 217 l0 64 -37 6 c-21 4 -71 9 -111 13 l-73
7 6 -44z"/>
<path d="M834 1076 c-203 -109 -332 -271 -400 -503 -28 -98 -54 -266 -54 -360
l0 -63 415 0 c228 0 415 2 415 5 0 3 -40 86 -90 185 l-90 179 70 57 c39 31 69
61 68 66 -12 35 -255 467 -263 467 -5 0 -38 -14 -71 -33z"/>
<path d="M1936 1088 c-17 -28 -246 -448 -246 -452 0 -3 112 -93 133 -107 4 -3
-32 -88 -82 -187 -50 -100 -91 -184 -91 -187 0 -3 187 -5 415 -5 l415 0 0 63
c0 94 -26 262 -54 360 -56 190 -159 341 -301 442 -53 38 -155 95 -169 95 -3 0
-12 -10 -20 -22z"/>
<path d="M1330 932 c0 -2 11 -25 26 -51 l25 -47 -23 -342 -24 -342 96 0 96 0
-24 342 -23 342 25 47 c15 26 26 49 26 51 0 2 -45 4 -100 4 -55 0 -100 -2
-100 -4z"/>
</g>
</svg>
