<?xml version="1.0" standalone="no"?>
<!DOCTYPE svg PUBLIC "-//W3C//DTD SVG 20010904//EN"
 "http://www.w3.org/TR/2001/REC-SVG-20010904/DTD/svg10.dtd">
<svg version="1.0" xmlns="http://www.w3.org/2000/svg"
 width="1067.000000pt" height="1067.000000pt" viewBox="0 0 1067.000000 1067.000000"
 preserveAspectRatio="xMidYMid meet">
<metadata>
Created by potrace 1.11, written by Peter Selinger 2001-2013
</metadata>
<g transform="translate(0.000000,1067.000000) scale(0.100000,-0.100000)"
fill="#000000" stroke="none">
<path d="M3291 9505 c-328 -74 -579 -299 -671 -601 -11 -39 -117 -662 -234
-1385 l-212 -1314 -990 -5 -989 -5 -40 -22 c-47 -25 -105 -84 -131 -133 -16
-29 -19 -57 -19 -170 2 -489 305 -968 761 -1200 113 -58 270 -111 404 -137 91
-17 268 -18 4155 -18 3908 0 4064 1 4165 19 58 10 151 33 207 52 562 183 963
719 967 1289 1 112 -1 123 -26 171 -28 53 -76 101 -131 131 -30 17 -97 18
-1024 21 -777 2 -993 5 -993 15 0 6 -95 599 -211 1317 -165 1026 -217 1324
-240 1395 -91 274 -314 484 -604 567 -68 19 -103 23 -230 23 -147 -1 -154 -2
-330 -49 -318 -84 -661 -143 -1030 -178 -216 -20 -865 -17 -1080 5 -354 37
-633 86 -958 169 -180 46 -216 51 -327 54 -84 2 -146 -1 -189 -11z m372 -590
c864 -222 1741 -270 2627 -144 199 28 514 91 700 140 190 50 261 54 341 17 30
-14 71 -40 92 -57 75 -67 78 -80 192 -782 58 -354 105 -652 105 -661 0 -17
-120 -18 -2390 -18 l-2390 0 5 23 c2 12 50 303 105 647 55 344 107 646 116
672 28 86 119 169 214 194 71 20 95 17 283 -31z m6387 -3284 c0 -23 -46 -113
-96 -188 -121 -182 -319 -309 -539 -348 -78 -13 -536 -15 -4079 -15 -2626 0
-4015 4 -4061 10 -267 39 -498 209 -624 457 -17 34 -31 69 -31 78 0 13 491 15
4715 15 2853 0 4715 -4 4715 -9z"/>
<path d="M2175 3665 c-161 -31 -290 -99 -400 -210 -83 -84 -135 -170 -172
-280 -27 -79 -27 -83 -31 -413 -3 -271 0 -354 13 -445 85 -580 522 -1010 1156
-1139 110 -22 132 -23 599 -23 465 0 490 1 598 23 590 119 998 493 1122 1026
10 45 21 108 25 141 3 33 8 79 11 103 l5 42 233 0 232 0 12 -114 c61 -584 457
-1025 1056 -1176 185 -47 269 -52 756 -47 413 4 452 6 545 26 298 66 533 185
726 368 202 192 328 425 386 710 15 75 18 142 18 458 0 328 -2 377 -18 435
-71 251 -256 436 -507 507 -61 17 -133 18 -1210 18 -1294 0 -1191 6 -1370 -82
-79 -38 -110 -61 -181 -132 -71 -71 -94 -103 -133 -181 -26 -52 -52 -123 -59
-157 l-12 -63 -240 0 -241 0 -17 73 c-59 244 -251 440 -509 519 l-73 23 -1125
2 c-904 1 -1139 -1 -1195 -12z"/>
</g>
</svg>
